<svg width="312" height="312" viewBox="0 0 312 312" fill="none" xmlns="http://www.w3.org/2000/svg">
    <path
        d="M259.166 162.165C259.135 114.435 266.311 101.799 240.446 61.4765C214.581 21.1536 151.176 12.2242 103.228 42.1325C55.2802 72.0408 42.3883 110.504 42.3883 110.504C42.3883 110.504 24.9912 155.432 49.4395 200.672C71.7975 242.056 115.827 265.568 154.016 284.912H251.665C257.601 279.91 262.648 273.939 266.592 267.253C286.478 233.788 259.203 209.895 259.166 162.165Z"
        fill="#384A5D" />
    <path opacity="0.7"
        d="M259.166 162.165C259.135 114.435 266.311 101.799 240.446 61.4765C214.581 21.1536 151.176 12.2242 103.228 42.1325C55.2802 72.0408 42.3883 110.504 42.3883 110.504C42.3883 110.504 24.9912 155.432 49.4395 200.672C71.7975 242.056 115.827 265.568 154.016 284.912H251.665C257.601 279.91 262.648 273.939 266.592 267.253C286.478 233.788 259.203 209.895 259.166 162.165Z"
        fill="#41737F" />
    <path
        d="M157.866 153.554L153.754 231.847L101.656 229.114L102.093 220.815L105.768 150.815L138.572 152.537L157.866 153.554Z"
        fill="white" />
    <path opacity="0.2"
        d="M141.604 199.424L129.867 200.391L133.293 215.174L102.093 220.815L105.768 150.815L138.572 152.537L141.604 199.424Z"
        fill="black" fill-opacity="0.7" />
    <path
        d="M157.866 153.554L153.754 231.847L101.656 229.114L102.093 220.815L105.768 150.815L138.572 152.537L157.866 153.554Z"
        stroke="#263238" stroke-linecap="round" stroke-linejoin="round" />
    <path d="M109.443 156.168L123.003 156.88" stroke="#263238" stroke-width="2" stroke-linecap="round"
        stroke-linejoin="round" />
    <path d="M109.306 158.771L118.529 159.257" stroke="#263238" stroke-width="2" stroke-linecap="round"
        stroke-linejoin="round" />
    <path d="M112.289 165.092L151.289 167.138" stroke="#263238" stroke-width="2" stroke-linecap="round"
        stroke-linejoin="round" />
    <path d="M112.152 167.694L151.152 169.74" stroke="#263238" stroke-width="2" stroke-linecap="round"
        stroke-linejoin="round" />
    <path d="M111.996 170.733L145.255 172.474" stroke="#263238" stroke-width="2" stroke-linecap="round"
        stroke-linejoin="round" />
    <path d="M112.009 173.505L111.842 176.676L115.014 176.843L115.181 173.671L112.009 173.505Z" stroke="#263238"
        stroke-linecap="round" stroke-linejoin="round" />
    <path d="M117.758 173.809L117.592 176.981L120.763 177.148L120.93 173.976L117.758 173.809Z" stroke="#263238"
        stroke-linecap="round" stroke-linejoin="round" />
    <path d="M123.501 174.114L123.334 177.286L126.506 177.452L126.672 174.281L123.501 174.114Z" stroke="#263238"
        stroke-linecap="round" stroke-linejoin="round" />
    <path d="M129.249 174.418L129.083 177.59L132.254 177.757L132.421 174.585L129.249 174.418Z" stroke="#263238"
        stroke-linecap="round" stroke-linejoin="round" />
    <path
        d="M110.211 164.979C110.207 165.083 110.183 165.184 110.139 165.278C110.096 165.372 110.035 165.456 109.959 165.526C109.883 165.596 109.794 165.651 109.697 165.687C109.6 165.722 109.497 165.739 109.393 165.734C109.183 165.724 108.986 165.63 108.845 165.474C108.704 165.317 108.631 165.112 108.642 164.901C108.652 164.691 108.746 164.494 108.902 164.353C109.059 164.212 109.264 164.139 109.475 164.149C109.578 164.154 109.679 164.179 109.773 164.223C109.866 164.267 109.95 164.329 110.02 164.406C110.089 164.482 110.143 164.572 110.178 164.669C110.213 164.767 110.228 164.87 110.223 164.973L110.211 164.979Z"
        fill="#263238" />
    <path d="M111.49 180.274L150.49 182.32" stroke="#263238" stroke-width="2" stroke-linecap="round"
        stroke-linejoin="round" />
    <path d="M111.353 182.876L150.353 184.922" stroke="#263238" stroke-width="2" stroke-linecap="round"
        stroke-linejoin="round" />
    <path d="M111.197 185.915L144.456 187.656" stroke="#263238" stroke-width="2" stroke-linecap="round"
        stroke-linejoin="round" />
    <path d="M111.204 188.696L111.037 191.868L114.209 192.035L114.375 188.863L111.204 188.696Z" stroke="#263238"
        stroke-linecap="round" stroke-linejoin="round" />
    <path d="M116.959 188.995L116.792 192.166L119.964 192.333L120.131 189.161L116.959 188.995Z" stroke="#263238"
        stroke-linecap="round" stroke-linejoin="round" />
    <path d="M122.701 189.293L122.535 192.465L125.706 192.632L125.873 189.46L122.701 189.293Z" stroke="#263238"
        stroke-linecap="round" stroke-linejoin="round" />
    <path d="M128.444 189.598L128.277 192.769L131.449 192.936L131.616 189.764L128.444 189.598Z" stroke="#263238"
        stroke-linecap="round" stroke-linejoin="round" />
    <path
        d="M109.418 180.161C109.414 180.265 109.388 180.368 109.344 180.462C109.3 180.556 109.237 180.641 109.16 180.711C109.083 180.781 108.993 180.835 108.895 180.871C108.797 180.906 108.693 180.921 108.589 180.916C108.431 180.909 108.279 180.855 108.152 180.761C108.025 180.667 107.929 180.537 107.875 180.389C107.822 180.24 107.814 180.079 107.852 179.926C107.89 179.773 107.972 179.634 108.089 179.528C108.206 179.422 108.351 179.352 108.508 179.329C108.664 179.305 108.823 179.328 108.966 179.396C109.109 179.463 109.229 179.571 109.311 179.706C109.392 179.841 109.432 179.997 109.425 180.155L109.418 180.161Z"
        fill="#263238" />
    <path d="M110.698 195.456L149.691 197.502" stroke="#263238" stroke-width="2" stroke-linecap="round"
        stroke-linejoin="round" />
    <path d="M110.56 198.058L149.554 200.104" stroke="#263238" stroke-width="2" stroke-linecap="round"
        stroke-linejoin="round" />
    <path d="M110.398 201.09L143.657 202.837" stroke="#263238" stroke-width="2" stroke-linecap="round"
        stroke-linejoin="round" />
    <path d="M110.411 203.869L110.244 207.041L113.416 207.208L113.583 204.036L110.411 203.869Z" stroke="#263238"
        stroke-linecap="round" stroke-linejoin="round" />
    <path d="M116.833 204.155L116.674 207.333L119.853 207.492L120.011 204.313L116.833 204.155Z" stroke="#263238"
        stroke-width="1.00125" stroke-linecap="round" stroke-linejoin="round" />
    <path d="M121.902 204.479L121.735 207.65L124.907 207.817L125.074 204.645L121.902 204.479Z" stroke="#263238"
        stroke-linecap="round" stroke-linejoin="round" />
    <path d="M127.658 204.777L127.491 207.948L130.663 208.115L130.829 204.943L127.658 204.777Z" stroke="#263238"
        stroke-linecap="round" stroke-linejoin="round" />
    <path
        d="M108.62 195.343C108.615 195.447 108.59 195.549 108.545 195.644C108.501 195.738 108.438 195.823 108.361 195.893C108.284 195.963 108.194 196.017 108.096 196.052C107.998 196.088 107.894 196.103 107.79 196.098V196.098C107.578 196.098 107.375 196.014 107.225 195.864C107.075 195.714 106.991 195.511 106.991 195.3C106.991 195.088 107.075 194.885 107.225 194.735C107.375 194.585 107.578 194.501 107.79 194.501H107.902C108.006 194.506 108.108 194.531 108.203 194.575C108.297 194.62 108.382 194.682 108.452 194.759C108.522 194.836 108.576 194.926 108.611 195.024C108.647 195.123 108.662 195.227 108.657 195.331L108.62 195.343Z"
        fill="#263238" />
    <path d="M109.874 211.068L148.868 213.121" stroke="#263238" stroke-width="2" stroke-linecap="round"
        stroke-linejoin="round" />
    <path d="M109.737 213.67L148.737 215.723" stroke="#263238" stroke-width="2" stroke-linecap="round"
        stroke-linejoin="round" />
    <path d="M109.581 216.709L142.84 218.456" stroke="#263238" stroke-width="2" stroke-linecap="round"
        stroke-linejoin="round" />
    <path d="M109.584 219.489L109.417 222.661L112.589 222.828L112.756 219.656L109.584 219.489Z" stroke="#263238"
        stroke-linecap="round" stroke-linejoin="round" />
    <path d="M115.34 219.788L115.174 222.959L118.345 223.126L118.512 219.954L115.34 219.788Z" stroke="#263238"
        stroke-linecap="round" stroke-linejoin="round" />
    <path d="M121.095 220.086L120.929 223.258L124.1 223.425L124.267 220.253L121.095 220.086Z" stroke="#263238"
        stroke-linecap="round" stroke-linejoin="round" />
    <path d="M126.838 220.397L126.671 223.569L129.843 223.736L130.01 220.564L126.838 220.397Z" stroke="#263238"
        stroke-linecap="round" stroke-linejoin="round" />
    <path
        d="M107.796 210.962C107.787 211.118 107.732 211.269 107.638 211.394C107.544 211.519 107.415 211.613 107.267 211.665C107.119 211.717 106.959 211.724 106.807 211.685C106.656 211.646 106.519 211.562 106.414 211.446C106.31 211.329 106.242 211.184 106.22 211.029C106.198 210.874 106.222 210.716 106.29 210.575C106.358 210.433 106.466 210.315 106.601 210.235C106.735 210.156 106.891 210.117 107.047 210.126C107.151 210.131 107.253 210.157 107.347 210.202C107.441 210.248 107.526 210.311 107.595 210.388C107.665 210.466 107.718 210.557 107.753 210.655C107.787 210.754 107.802 210.858 107.796 210.962V210.962Z"
        fill="#263238" />
    <path d="M113.088 174.826L113.499 175.537L115.19 173.672" stroke="#263238" stroke-width="2" stroke-linecap="round"
        stroke-linejoin="round" />
    <path d="M123.795 190.42L124.207 191.131L125.898 189.265" stroke="#263238" stroke-width="2" stroke-linecap="round"
        stroke-linejoin="round" />
    <path d="M129.168 206.444L129.58 207.156L131.271 205.284" stroke="#263238" stroke-width="2" stroke-linecap="round"
        stroke-linejoin="round" />
    <path d="M116.438 220.746L116.85 221.451L118.541 219.586" stroke="#263238" stroke-width="2" stroke-linecap="round"
        stroke-linejoin="round" />
    <path
        d="M123.246 209.689L72.9831 223.66L51.9917 148.113L72.8021 142.328L102.255 134.148L121.299 202.688L123.246 209.689Z"
        fill="white" />
    <path opacity="0.2" d="M121.299 202.688L82.4367 205.202L72.8021 142.328L102.255 134.148L121.299 202.688Z"
        fill="black" fill-opacity="0.7" />
    <path
        d="M123.246 209.689L72.9831 223.66L51.9917 148.113L72.8021 142.328L102.255 134.148L121.299 202.688L123.246 209.689Z"
        stroke="#263238" stroke-linecap="round" stroke-linejoin="round" />
    <path d="M57.1834 152.019L70.2624 148.387" stroke="#263238" stroke-width="2" stroke-linecap="round"
        stroke-linejoin="round" />
    <path d="M57.876 154.534L66.7743 152.063" stroke="#263238" stroke-width="2" stroke-linecap="round"
        stroke-linejoin="round" />
    <path d="M62.712 159.576L100.339 149.124" stroke="#263238" stroke-width="2" stroke-linecap="round"
        stroke-linejoin="round" />
    <path d="M63.4109 162.084L101.038 151.632" stroke="#263238" stroke-width="2" stroke-linecap="round"
        stroke-linejoin="round" />
    <path d="M64.2221 165.017L96.3144 156.1" stroke="#263238" stroke-width="2" stroke-linecap="round"
        stroke-linejoin="round" />
    <path d="M68.1877 166.792L65.1275 167.642L65.9779 170.703L69.0381 169.852L68.1877 166.792Z" stroke="#263238"
        stroke-linecap="round" stroke-linejoin="round" />
    <path d="M73.7359 165.245L70.6757 166.095L71.5261 169.155L74.5863 168.305L73.7359 165.245Z" stroke="#263238"
        stroke-linecap="round" stroke-linejoin="round" />
    <path d="M79.2856 163.702L76.2254 164.552L77.0758 167.612L80.136 166.762L79.2856 163.702Z" stroke="#263238"
        stroke-linecap="round" stroke-linejoin="round" />
    <path d="M84.8252 162.163L81.765 163.014L82.6154 166.074L85.6756 165.224L84.8252 162.163Z" stroke="#263238"
        stroke-linecap="round" stroke-linejoin="round" />
    <path
        d="M60.709 160.131C60.7653 160.334 60.7387 160.55 60.6351 160.734C60.5316 160.917 60.3595 161.051 60.1568 161.107C59.954 161.164 59.7373 161.137 59.5541 161.034C59.371 160.93 59.2365 160.758 59.1802 160.555C59.1239 160.352 59.1505 160.136 59.2541 159.953C59.3576 159.769 59.5297 159.635 59.7324 159.579C59.9352 159.522 60.152 159.549 60.3351 159.653C60.5182 159.756 60.6527 159.928 60.709 160.131V160.131Z"
        fill="#263238" />
    <path d="M66.7805 174.221L104.408 163.769" stroke="#263238" stroke-width="2" stroke-linecap="round"
        stroke-linejoin="round" />
    <path d="M67.4794 176.736L105.107 166.277" stroke="#263238" stroke-width="2" stroke-linecap="round"
        stroke-linejoin="round" />
    <path d="M68.2968 179.662L100.383 170.745" stroke="#263238" stroke-width="2" stroke-linecap="round"
        stroke-linejoin="round" />
    <path d="M72.2596 181.434L69.1994 182.284L70.0498 185.344L73.11 184.494L72.2596 181.434Z" stroke="#263238"
        stroke-linecap="round" stroke-linejoin="round" />
    <path d="M77.8035 179.894L74.7433 180.745L75.5937 183.805L78.6539 182.954L77.8035 179.894Z" stroke="#263238"
        stroke-linecap="round" stroke-linejoin="round" />
    <path d="M83.3534 178.353L80.2932 179.203L81.1436 182.264L84.2038 181.413L83.3534 178.353Z" stroke="#263238"
        stroke-linecap="round" stroke-linejoin="round" />
    <path d="M88.9077 176.804L85.8475 177.654L86.6979 180.715L89.7581 179.864L88.9077 176.804Z" stroke="#263238"
        stroke-linecap="round" stroke-linejoin="round" />
    <path
        d="M64.7837 174.782C64.8259 174.935 64.8221 175.096 64.7727 175.246C64.7234 175.396 64.6307 175.528 64.5064 175.625C64.3821 175.722 64.2318 175.78 64.0744 175.792C63.917 175.804 63.7596 175.769 63.6221 175.692C63.4845 175.614 63.373 175.498 63.3017 175.357C63.2303 175.216 63.2022 175.058 63.221 174.901C63.2398 174.744 63.3046 174.596 63.4073 174.477C63.5099 174.357 63.6458 174.27 63.7978 174.227C63.8982 174.199 64.0032 174.19 64.1068 174.202C64.2105 174.215 64.3107 174.247 64.4017 174.298C64.4927 174.349 64.5728 174.418 64.6373 174.5C64.7017 174.582 64.7494 174.676 64.7775 174.776L64.7837 174.782Z"
        fill="#263238" />
    <path d="M70.8552 188.872L108.476 178.414" stroke="#263238" stroke-width="2" stroke-linecap="round"
        stroke-linejoin="round" />
    <path d="M71.5541 191.381L109.175 180.929" stroke="#263238" stroke-width="2" stroke-linecap="round"
        stroke-linejoin="round" />
    <path d="M72.3653 194.314L104.458 185.397" stroke="#263238" stroke-width="2" stroke-linecap="round"
        stroke-linejoin="round" />
    <path d="M76.3258 196.079L73.2656 196.93L74.116 199.99L77.1762 199.139L76.3258 196.079Z" stroke="#263238"
        stroke-linecap="round" stroke-linejoin="round" />
    <path d="M81.8817 194.536L78.8215 195.387L79.6719 198.447L82.7321 197.596L81.8817 194.536Z" stroke="#263238"
        stroke-linecap="round" stroke-linejoin="round" />
    <path d="M87.4193 192.997L84.3591 193.847L85.2095 196.907L88.2697 196.057L87.4193 192.997Z" stroke="#263238"
        stroke-linecap="round" stroke-linejoin="round" />
    <path d="M92.9692 191.455L89.9091 192.306L90.7594 195.366L93.8196 194.516L92.9692 191.455Z" stroke="#263238"
        stroke-linecap="round" stroke-linejoin="round" />
    <path
        d="M68.8522 189.428C68.8944 189.58 68.8906 189.741 68.8412 189.891C68.7919 190.041 68.6992 190.173 68.5749 190.27C68.4506 190.367 68.3003 190.426 68.1429 190.438C67.9855 190.45 67.8281 190.415 67.6905 190.337C67.553 190.26 67.4415 190.143 67.3701 190.002C67.2988 189.862 67.2707 189.703 67.2895 189.546C67.3083 189.389 67.3731 189.242 67.4758 189.122C67.5784 189.002 67.7143 188.915 67.8663 188.872V188.872C67.9666 188.844 68.0717 188.835 68.1753 188.848C68.2789 188.86 68.3791 188.892 68.4702 188.943C68.5612 188.994 68.6412 189.063 68.7057 189.145C68.7702 189.227 68.8179 189.321 68.8459 189.421L68.8522 189.428Z"
        fill="#263238" />
    <path d="M75.0423 203.936L112.663 193.484" stroke="#263238" stroke-width="2" stroke-linecap="round"
        stroke-linejoin="round" />
    <path d="M75.7349 206.45L113.362 195.992" stroke="#263238" stroke-width="2" stroke-linecap="round"
        stroke-linejoin="round" />
    <path d="M76.5524 209.377L108.645 200.46" stroke="#263238" stroke-width="2" stroke-linecap="round"
        stroke-linejoin="round" />
    <path d="M80.5134 211.15L77.4532 212L78.3036 215.061L81.3638 214.21L80.5134 211.15Z" stroke="#263238"
        stroke-linecap="round" stroke-linejoin="round" />
    <path d="M86.0631 209.607L83.0029 210.457L83.8533 213.518L86.9135 212.667L86.0631 209.607Z" stroke="#263238"
        stroke-linecap="round" stroke-linejoin="round" />
    <path d="M91.613 208.066L88.5529 208.916L89.4032 211.976L92.4634 211.126L91.613 208.066Z" stroke="#263238"
        stroke-linecap="round" stroke-linejoin="round" />
    <path d="M97.1569 206.526L94.0967 207.376L94.9471 210.437L98.0073 209.586L97.1569 206.526Z" stroke="#263238"
        stroke-linecap="round" stroke-linejoin="round" />
    <path
        d="M73.0392 204.491C73.098 204.695 73.0735 204.913 72.9711 205.099C72.8687 205.284 72.6968 205.421 72.4932 205.48C72.2897 205.539 72.0711 205.514 71.8856 205.412C71.7001 205.31 71.5629 205.138 71.5042 204.934C71.4463 204.73 71.4715 204.511 71.5744 204.325C71.6772 204.139 71.8494 204.001 72.0533 203.942V203.942C72.2552 203.886 72.471 203.911 72.6542 204.013C72.8375 204.114 72.9735 204.284 73.033 204.485L73.0392 204.491Z"
        fill="#263238" />
    <path d="M71.785 167.095L72.4027 167.638L73.4136 165.329" stroke="#263238" stroke-width="2" stroke-linecap="round"
        stroke-linejoin="round" />
    <path d="M70.2811 183.437L70.8989 183.98L71.9035 181.671" stroke="#263238" stroke-width="2" stroke-linecap="round"
        stroke-linejoin="round" />
    <path d="M74.3496 197.933L74.9674 198.476L75.972 196.167" stroke="#263238" stroke-width="2" stroke-linecap="round"
        stroke-linejoin="round" />
    <path d="M89.6189 209.808L90.2367 210.35L91.2476 208.042" stroke="#263238" stroke-width="2" stroke-linecap="round"
        stroke-linejoin="round" />
    <path d="M128.155 116.696L76.2275 121.687L83.7288 199.733L135.656 194.742L128.155 116.696Z" fill="white"
        stroke="#263238" stroke-linecap="round" stroke-linejoin="round" />
    <path d="M80.652 126.447L94.1679 125.149" stroke="#263238" stroke-width="2" stroke-linecap="round"
        stroke-linejoin="round" />
    <path d="M80.9016 129.043L90.0931 128.157" stroke="#263238" stroke-width="2" stroke-linecap="round"
        stroke-linejoin="round" />
    <path d="M84.7829 134.853L123.652 131.115" stroke="#263238" stroke-width="2" stroke-linecap="round"
        stroke-linejoin="round" />
    <path d="M85.0325 137.442L123.901 133.711" stroke="#263238" stroke-width="2" stroke-linecap="round"
        stroke-linejoin="round" />
    <path d="M85.3258 140.469L118.479 137.286" stroke="#263238" stroke-width="2" stroke-linecap="round"
        stroke-linejoin="round" />
    <path d="M88.9244 142.902L85.7628 143.206L86.0667 146.368L89.2283 146.064L88.9244 142.902Z" stroke="#263238"
        stroke-linecap="round" stroke-linejoin="round" />
    <path d="M94.655 142.35L91.4934 142.654L91.7973 145.816L94.9589 145.512L94.655 142.35Z" stroke="#263238"
        stroke-linecap="round" stroke-linejoin="round" />
    <path d="M100.386 141.805L97.2241 142.108L97.5279 145.27L100.69 144.966L100.386 141.805Z" stroke="#263238"
        stroke-linecap="round" stroke-linejoin="round" />
    <path d="M106.116 141.247L102.954 141.55L103.258 144.712L106.42 144.408L106.116 141.247Z" stroke="#263238"
        stroke-linecap="round" stroke-linejoin="round" />
    <path
        d="M82.7174 135.052C82.7327 135.209 82.7011 135.368 82.6265 135.507C82.5519 135.646 82.4377 135.76 82.2984 135.834C82.159 135.909 82.0008 135.94 81.8437 135.924C81.6865 135.909 81.5375 135.847 81.4155 135.747C81.2935 135.647 81.2039 135.512 81.1581 135.361C81.1123 135.21 81.1123 135.049 81.1582 134.898C81.204 134.747 81.2936 134.612 81.4157 134.512C81.5377 134.412 81.6867 134.35 81.8439 134.335C81.9475 134.324 82.0522 134.335 82.152 134.365C82.2517 134.395 82.3445 134.444 82.425 134.511C82.5056 134.577 82.5724 134.658 82.6215 134.75C82.6706 134.842 82.7011 134.942 82.7112 135.046L82.7174 135.052Z"
        fill="#263238" />
    <path d="M86.2368 149.985L125.106 146.253" stroke="#263238" stroke-width="2" stroke-linecap="round"
        stroke-linejoin="round" />
    <path d="M86.4865 152.581L125.355 148.843" stroke="#263238" stroke-width="2" stroke-linecap="round"
        stroke-linejoin="round" />
    <path d="M86.7797 155.607L119.933 152.418" stroke="#263238" stroke-width="2" stroke-linecap="round"
        stroke-linejoin="round" />
    <path d="M90.3779 158.032L87.2163 158.336L87.5202 161.497L90.6818 161.193L90.3779 158.032Z" stroke="#263238"
        stroke-linecap="round" stroke-linejoin="round" />
    <path d="M96.1085 157.486L92.9469 157.79L93.2508 160.951L96.4124 160.647L96.1085 157.486Z" stroke="#263238"
        stroke-linecap="round" stroke-linejoin="round" />
    <path d="M101.839 156.934L98.6776 157.238L98.9814 160.399L102.143 160.096L101.839 156.934Z" stroke="#263238"
        stroke-linecap="round" stroke-linejoin="round" />
    <path d="M107.57 156.395L104.409 156.699L104.713 159.86L107.874 159.556L107.57 156.395Z" stroke="#263238"
        stroke-linecap="round" stroke-linejoin="round" />
    <path
        d="M84.1714 150.184C84.1867 150.341 84.155 150.5 84.0804 150.639C84.0058 150.778 83.8916 150.892 83.7523 150.966C83.613 151.041 83.4547 151.072 83.2976 151.056C83.1405 151.041 82.9915 150.979 82.8694 150.879C82.7474 150.779 82.6578 150.644 82.612 150.493C82.5662 150.342 82.5662 150.181 82.6121 150.03C82.6579 149.879 82.7475 149.744 82.8696 149.644C82.9916 149.544 83.1407 149.482 83.2978 149.467C83.4023 149.456 83.5078 149.467 83.6083 149.497C83.7088 149.528 83.8023 149.578 83.8834 149.644C83.9645 149.711 84.0317 149.793 84.0812 149.886C84.1306 149.978 84.1612 150.08 84.1714 150.184Z"
        fill="#263238" />
    <path d="M87.6907 165.117L126.56 161.385" stroke="#263238" stroke-width="2" stroke-linecap="round"
        stroke-linejoin="round" />
    <path d="M87.9404 167.712L126.809 163.975" stroke="#263238" stroke-width="2" stroke-linecap="round"
        stroke-linejoin="round" />
    <path d="M88.2336 170.739L121.387 167.55" stroke="#263238" stroke-width="2" stroke-linecap="round"
        stroke-linejoin="round" />
    <path d="M91.8315 173.167L88.6699 173.471L88.9737 176.633L92.1353 176.329L91.8315 173.167Z" stroke="#263238"
        stroke-linecap="round" stroke-linejoin="round" />
    <path d="M97.5621 172.616L94.4005 172.92L94.7044 176.081L97.866 175.777L97.5621 172.616Z" stroke="#263238"
        stroke-linecap="round" stroke-linejoin="round" />
    <path d="M103.293 172.07L100.131 172.373L100.435 175.535L103.597 175.231L103.293 172.07Z" stroke="#263238"
        stroke-linecap="round" stroke-linejoin="round" />
    <path d="M109.023 171.518L105.862 171.822L106.166 174.983L109.327 174.679L109.023 171.518Z" stroke="#263238"
        stroke-linecap="round" stroke-linejoin="round" />
    <path
        d="M85.6191 165.316C85.6332 165.472 85.6008 165.629 85.5259 165.767C85.4509 165.904 85.3369 166.017 85.1981 166.09C85.0593 166.162 84.9021 166.193 84.7462 166.176C84.5904 166.159 84.4429 166.097 84.3225 165.997C84.2021 165.896 84.1142 165.763 84.0698 165.612C84.0254 165.462 84.0266 165.302 84.0732 165.152C84.1198 165.003 84.2097 164.87 84.3316 164.772C84.4535 164.673 84.6019 164.613 84.758 164.599C84.8616 164.589 84.9661 164.6 85.0655 164.631C85.1649 164.662 85.2572 164.712 85.3372 164.779C85.4171 164.846 85.4832 164.928 85.5316 165.02C85.5799 165.112 85.6097 165.213 85.6191 165.316V165.316Z"
        fill="#263238" />
    <path d="M89.1884 180.685L128.057 176.948" stroke="#263238" stroke-width="2" stroke-linecap="round"
        stroke-linejoin="round" />
    <path d="M89.438 183.275L128.307 179.544" stroke="#263238" stroke-width="2" stroke-linecap="round"
        stroke-linejoin="round" />
    <path d="M89.725 186.301L122.878 183.119" stroke="#263238" stroke-width="2" stroke-linecap="round"
        stroke-linejoin="round" />
    <path d="M93.3265 188.734L90.1649 189.038L90.4688 192.199L93.6304 191.895L93.3265 188.734Z" stroke="#263238"
        stroke-linecap="round" stroke-linejoin="round" />
    <path d="M99.0634 188.188L95.9018 188.492L96.2057 191.653L99.3673 191.349L99.0634 188.188Z" stroke="#263238"
        stroke-linecap="round" stroke-linejoin="round" />
    <path d="M104.787 187.63L101.626 187.934L101.929 191.096L105.091 190.792L104.787 187.63Z" stroke="#263238"
        stroke-linecap="round" stroke-linejoin="round" />
    <path d="M110.518 187.078L107.356 187.382L107.66 190.543L110.822 190.24L110.518 187.078Z" stroke="#263238"
        stroke-linecap="round" stroke-linejoin="round" />
    <path
        d="M87.1167 180.879C87.1334 181.036 87.1028 181.195 87.0289 181.336C86.9549 181.476 86.841 181.591 86.7016 181.666C86.5621 181.741 86.4034 181.773 86.2457 181.758C86.088 181.743 85.9384 181.681 85.8159 181.58C85.6934 181.48 85.6035 181.345 85.5577 181.194C85.512 181.042 85.5123 180.88 85.5588 180.729C85.6053 180.577 85.6957 180.443 85.8187 180.343C85.9417 180.243 86.0916 180.182 86.2493 180.168C86.353 180.157 86.4577 180.167 86.5574 180.198C86.6572 180.228 86.75 180.277 86.8305 180.343C86.9111 180.409 86.9778 180.491 87.0269 180.583C87.076 180.675 87.1065 180.775 87.1167 180.879V180.879Z"
        fill="#263238" />
    <path d="M87.0106 144.362L87.5222 145.005L88.92 142.908" stroke="#263238" stroke-width="2" stroke-linecap="round"
        stroke-linejoin="round" />
    <path d="M99.9087 158.203L100.42 158.845L101.812 156.749" stroke="#263238" stroke-width="2" stroke-linecap="round"
        stroke-linejoin="round" />
    <path d="M95.6592 174.202L96.1709 174.845L97.5687 172.748" stroke="#263238" stroke-width="2" stroke-linecap="round"
        stroke-linejoin="round" />
    <path d="M108.532 188.548L109.044 189.191L110.442 187.094" stroke="#263238" stroke-width="2" stroke-linecap="round"
        stroke-linejoin="round" />
    <path d="M174.676 192.423L199.811 285.137H203.568L178.439 192.423H174.676Z" fill="#757575" stroke="#263238"
        stroke-linecap="round" stroke-linejoin="round" />
    <path d="M231.286 258.854H183.643V262.735H231.286V258.854Z" fill="#999999" stroke="#263238" stroke-linecap="round"
        stroke-linejoin="round" />
    <path
        d="M256.701 171.6L225.919 285.168H222.175L252.951 171.6C254.087 167.413 251.485 164.006 247.148 164.006H220.628C216.297 164.006 211.842 167.413 210.706 171.6L179.918 285.168H176.174L206.956 171.6C208.634 165.404 215.199 160.368 221.614 160.368H248.14C254.536 160.368 258.38 165.397 256.701 171.6Z"
        fill="#757575" stroke="#263238" stroke-linecap="round" stroke-linejoin="round" />
    <path
        d="M257.188 171.631L249.55 199.824C249.182 201.01 248.455 202.054 247.469 202.81C246.484 203.567 245.288 203.999 244.046 204.048H200.466C199.941 204.089 199.413 203.998 198.932 203.783C198.451 203.569 198.031 203.237 197.711 202.818C197.39 202.399 197.18 201.907 197.099 201.386C197.018 200.865 197.069 200.332 197.246 199.836L204.89 171.644C205.261 170.46 205.989 169.419 206.975 168.665C207.96 167.911 209.154 167.48 210.394 167.432H253.968C254.383 167.402 254.801 167.454 255.196 167.586C255.591 167.718 255.957 167.926 256.271 168.199C256.586 168.472 256.844 168.804 257.03 169.177C257.216 169.549 257.327 169.955 257.356 170.371C257.385 170.798 257.327 171.226 257.188 171.631V171.631Z"
        fill="#384A5D" />
    <path opacity="0.2"
        d="M257.188 171.631L249.55 199.824C249.182 201.01 248.455 202.054 247.47 202.81C246.484 203.567 245.288 203.999 244.046 204.048H200.466C199.941 204.089 199.413 203.998 198.932 203.783C198.451 203.569 198.031 203.237 197.711 202.818C197.39 202.399 197.18 201.907 197.099 201.386C197.018 200.865 197.069 200.332 197.246 199.836L204.89 171.644C205.261 170.46 205.989 169.419 206.975 168.665C207.96 167.911 209.154 167.48 210.394 167.432H232.927C242.667 177.416 241.426 195.817 240.789 201.371C241.806 201.126 242.742 200.623 243.507 199.91C244.272 199.197 244.841 198.299 245.157 197.303L252.782 169.104C252.938 168.558 252.97 167.985 252.876 167.425H253.968C254.492 167.388 255.017 167.481 255.496 167.697C255.975 167.912 256.393 168.243 256.712 168.66C257.031 169.077 257.242 169.567 257.325 170.086C257.408 170.604 257.361 171.135 257.188 171.631V171.631Z"
        fill="black" fill-opacity="0.7" />
    <path
        d="M257.188 171.631L249.55 199.824C249.182 201.01 248.455 202.054 247.469 202.81C246.484 203.567 245.288 203.999 244.046 204.048H200.466C199.941 204.089 199.413 203.998 198.932 203.783C198.451 203.569 198.031 203.237 197.711 202.818C197.39 202.399 197.18 201.907 197.099 201.386C197.018 200.865 197.069 200.332 197.246 199.836L204.89 171.644C205.261 170.46 205.989 169.419 206.975 168.665C207.96 167.911 209.154 167.48 210.394 167.432H253.968C254.383 167.402 254.801 167.454 255.196 167.586C255.591 167.718 255.957 167.926 256.271 168.199C256.586 168.472 256.844 168.804 257.03 169.177C257.216 169.549 257.327 169.955 257.356 170.371C257.385 170.798 257.327 171.226 257.188 171.631V171.631Z"
        stroke="#263238" stroke-linecap="round" stroke-linejoin="round" />
    <path d="M231.566 232.571L245.819 285.137H249.575L235.329 232.571H231.566Z" fill="#757575" stroke="#263238"
        stroke-linecap="round" stroke-linejoin="round" />
    <path
        d="M235.342 226.512V231.654H179.232V226.512C179.232 225.509 179.63 224.547 180.339 223.838C181.048 223.129 182.01 222.731 183.013 222.731H231.554C232.051 222.729 232.544 222.826 233.004 223.015C233.464 223.204 233.882 223.483 234.234 223.834C234.586 224.185 234.865 224.603 235.055 225.062C235.245 225.522 235.342 226.015 235.342 226.512V226.512Z"
        fill="#384A5D" />
    <path opacity="0.2"
        d="M235.211 225.545C233.395 227.679 230.137 229.85 224.534 231.679H179.232V226.512C179.232 225.509 179.63 224.547 180.339 223.838C181.048 223.129 182.01 222.731 183.013 222.731H231.554C232.388 222.731 233.199 223.008 233.86 223.517C234.521 224.025 234.996 224.738 235.211 225.545V225.545Z"
        fill="black" fill-opacity="0.7" />
    <path
        d="M235.342 226.512V231.654H179.232V226.512C179.232 225.509 179.63 224.547 180.339 223.838C181.048 223.129 182.01 222.731 183.013 222.731H231.554C232.051 222.729 232.544 222.826 233.004 223.015C233.464 223.204 233.882 223.483 234.234 223.834C234.586 224.185 234.865 224.603 235.055 225.062C235.245 225.522 235.342 226.015 235.342 226.512V226.512Z"
        stroke="#263238" stroke-linecap="round" stroke-linejoin="round" />
    <path
        d="M237.245 230.1H177.815C177.226 230.1 176.748 230.578 176.748 231.167V233.856C176.748 234.446 177.226 234.924 177.815 234.924H237.245C237.834 234.924 238.312 234.446 238.312 233.856V231.167C238.312 230.578 237.834 230.1 237.245 230.1Z"
        fill="#999999" stroke="#263238" stroke-linecap="round" stroke-linejoin="round" />
    <path
        d="M177.409 230.256C174.72 232.995 187.755 276.039 187.755 276.039C186.333 277.287 184.236 277.861 182.252 278.123C180.428 278.35 178.584 278.377 176.754 278.204C176.754 278.204 158.072 232.889 163.213 221.645C168.355 210.4 200.26 205.296 200.26 205.296L201.621 201.926L218.125 199.605L220.852 219.816C220.852 219.816 218.144 220.079 214.069 220.603C203.143 221.988 182.352 225.264 177.409 230.256Z"
        fill="#263238" />
    <path opacity="0.3"
        d="M187.755 276.064C186.333 277.312 184.236 277.886 182.252 278.148C178.626 264.67 169.397 228.702 172.892 224.303C177.204 218.874 198.544 213.938 198.544 213.938C198.632 211.168 206.113 208.672 206.113 208.672L214.063 220.584C203.137 221.988 182.345 225.264 177.403 230.256C174.72 233.02 187.755 276.064 187.755 276.064Z"
        fill="black" />
    <path
        d="M177.409 230.256C174.72 232.995 187.755 276.039 187.755 276.039C186.333 277.287 184.236 277.861 182.252 278.123C180.428 278.35 178.584 278.377 176.754 278.204C176.754 278.204 158.072 232.889 163.213 221.645C168.355 210.4 200.26 205.296 200.26 205.296L201.621 201.926L218.125 199.605L220.852 219.816C220.852 219.816 218.144 220.079 214.069 220.603C203.143 221.988 182.352 225.264 177.409 230.256Z"
        stroke="#263238" stroke-linecap="round" stroke-linejoin="round" />
    <path
        d="M168.174 189.515C165.435 189.047 184.935 171.949 184.935 171.949L194.339 178.277C194.339 178.277 178.339 189.546 175.825 189.852C173.31 190.158 168.174 189.515 168.174 189.515Z"
        fill="white" />
    <path opacity="0.2"
        d="M168.174 189.515C165.435 189.047 184.935 171.949 184.935 171.949L194.339 178.277C194.339 178.277 178.339 189.546 175.825 189.852C173.31 190.158 168.174 189.515 168.174 189.515Z"
        fill="black" fill-opacity="0.7" />
    <path
        d="M168.174 189.515C165.435 189.047 184.935 171.949 184.935 171.949L194.339 178.277C194.339 178.277 178.339 189.546 175.825 189.852C173.31 190.158 168.174 189.515 168.174 189.515Z"
        stroke="#263238" stroke-linecap="round" stroke-linejoin="round" />
    <path
        d="M171.6 182.327C171.6 182.327 175.687 183.344 176.941 184.199C178.196 185.053 177.834 188.142 177.834 188.142C177.834 188.142 172.386 186.607 171.6 182.327Z"
        fill="white" stroke="#263238" stroke-linecap="round" stroke-linejoin="round" />
    <path d="M168.992 174.495L176.592 189.072H177.491L170.271 173.778L168.992 174.495Z" fill="#263238" />
    <path
        d="M175.843 185.035C175.843 185.035 171.051 181.628 169.878 181.628C168.705 181.628 165.192 185.777 165.192 187.868C165.192 189.958 172.854 191.1 174.352 189.334C175.101 188.454 173.616 186.333 173.616 186.333C174.508 187.282 175.465 188.168 176.48 188.985C177.104 189.334 178.296 188.879 178.296 188.879C178.296 188.879 176.698 186.32 175.843 185.035Z"
        fill="white" stroke="#263238" stroke-linecap="round" stroke-linejoin="round" />
    <path d="M173.616 189.815C172.511 188.412 171.154 187.227 169.616 186.32" stroke="#263238" stroke-linecap="round"
        stroke-linejoin="round" />
    <path d="M173.616 186.32C173.616 186.32 171.956 184.872 170.839 184.554" stroke="#263238" stroke-linecap="round"
        stroke-linejoin="round" />
    <path d="M168.393 188.161C169.553 188.756 170.672 189.427 171.744 190.17" stroke="#263238" stroke-linecap="round"
        stroke-linejoin="round" />
    <path
        d="M191.044 164.474C188.592 166.184 177.578 177.509 177.578 177.509C177.578 177.509 182.738 183.381 187.262 184.23L199.524 178.277L191.044 164.474Z"
        fill="#384A5D" stroke="#263238" stroke-linecap="round" stroke-linejoin="round" />
    <path opacity="0.4"
        d="M191.044 164.474C188.592 166.184 177.578 177.509 177.578 177.509C177.578 177.509 182.738 183.381 187.262 184.23L199.524 178.277L191.044 164.474Z"
        fill="white" stroke="#263238" stroke-linecap="round" stroke-linejoin="round" />
    <path
        d="M185.122 271.496L190.32 285.168C190.32 285.168 191.181 288.681 175.506 287.57L166.87 286.834L185.122 271.496Z"
        fill="#384A5D" />
    <path opacity="0.3"
        d="M185.122 271.496L190.32 285.168C190.32 285.168 191.181 288.681 175.506 287.57L166.87 286.834L185.122 271.496Z"
        fill="black" />
    <path
        d="M185.122 271.496L190.32 285.168C190.32 285.168 191.181 288.681 175.506 287.57L166.87 286.834L185.122 271.496Z"
        stroke="#263238" stroke-linecap="round" stroke-linejoin="round" />
    <path
        d="M183.15 278.036C183.15 278.036 184.261 283.346 183.15 287.296C183.15 287.296 166.608 289.885 162.908 288.9C159.207 287.914 156.961 286.067 156.849 285.156C156.849 285.156 156.98 282.622 160.686 281.88C164.393 281.137 171.762 280.632 174.676 276.451C177.59 272.27 183.15 278.036 183.15 278.036Z"
        fill="#384A5D" stroke="#263238" stroke-linecap="round" stroke-linejoin="round" />
    <path
        d="M204.978 201.377C210.263 193.839 234.562 202.912 234.562 202.912C234.562 202.912 236.877 221.058 227.198 225.9C217.52 230.743 203.567 230.481 199.799 234.406L184.461 279.696C184.461 279.696 178.951 281.998 170.939 278.373C170.939 278.373 180.679 244.171 183.537 232.028C186.364 220.01 204.666 211.854 204.666 211.854C203.722 210.74 203.008 209.451 202.563 208.06"
        fill="#263238" />
    <path
        d="M204.978 201.377C210.263 193.839 234.562 202.912 234.562 202.912C234.562 202.912 236.877 221.058 227.198 225.9C217.52 230.743 203.567 230.481 199.799 234.406L184.461 279.696C184.461 279.696 178.951 281.998 170.939 278.373C170.939 278.373 180.679 244.171 183.537 232.028C186.364 220.01 204.666 211.854 204.666 211.854C203.722 210.74 203.008 209.451 202.563 208.06"
        stroke="#263238" stroke-linecap="round" stroke-linejoin="round" />
    <path d="M229.576 218.724C228.8 219.412 227.986 220.053 227.136 220.646" stroke="white" stroke-linecap="round"
        stroke-linejoin="round" />
    <path d="M231.566 203.355C233.551 207.661 233.707 213.127 230.942 217.115" stroke="white" stroke-linecap="round"
        stroke-linejoin="round" />
    <path
        d="M226.032 204.048C226.032 204.048 225.526 207.368 227.005 208.684C228.484 210.001 233.02 210.669 233.02 210.669"
        stroke="white" stroke-linecap="round" stroke-linejoin="round" />
    <path
        d="M206.113 204.198C206.113 204.198 206.319 207.505 204.978 207.349C203.636 207.193 203.568 208.672 203.568 208.672"
        stroke="white" stroke-linecap="round" stroke-linejoin="round" />
    <path
        d="M191.368 167.02C191.164 166.186 191.055 165.332 191.044 164.474C191.044 164.474 198.532 158.159 208.173 158.196C219.654 158.234 226.674 161.847 229.482 166.864C233.938 174.801 234.562 202.912 234.562 202.912C234.562 202.912 205.751 207.355 201.621 201.908C200.903 200.959 201.452 194.264 201.452 194.264C201.452 194.264 198.226 185.802 197.546 179.238C196.598 177.931 195.717 176.578 194.906 175.182C193.88 173.464 192.992 171.667 192.248 169.809"
        fill="#384A5D" />
    <path
        d="M191.368 167.02C191.164 166.186 191.055 165.332 191.044 164.474C191.044 164.474 198.532 158.159 208.173 158.196C219.654 158.234 226.674 161.847 229.482 166.864C233.938 174.801 234.562 202.912 234.562 202.912C234.562 202.912 205.751 207.355 201.621 201.908C200.903 200.959 201.452 194.264 201.452 194.264C201.452 194.264 198.226 185.802 197.546 179.238C196.598 177.931 195.717 176.578 194.906 175.182C193.88 173.464 192.992 171.667 192.248 169.809"
        stroke="#263238" stroke-linecap="round" stroke-linejoin="round" />
    <g opacity="0.6">
        <path
            d="M191.368 167.02C191.164 166.186 191.055 165.332 191.044 164.474C191.044 164.474 198.532 158.159 208.173 158.196C219.654 158.234 226.674 161.847 229.482 166.864C233.938 174.801 234.562 202.912 234.562 202.912C234.562 202.912 205.751 207.355 201.621 201.908C200.903 200.959 201.452 194.264 201.452 194.264C201.452 194.264 198.226 185.802 197.546 179.238C196.598 177.931 195.717 176.578 194.906 175.182C193.88 173.464 192.992 171.667 192.248 169.809"
            fill="white" />
        <path
            d="M191.368 167.02C191.164 166.186 191.055 165.332 191.044 164.474C191.044 164.474 198.532 158.159 208.173 158.196C219.654 158.234 226.674 161.847 229.482 166.864C233.938 174.801 234.562 202.912 234.562 202.912C234.562 202.912 205.751 207.355 201.621 201.908C200.903 200.959 201.452 194.264 201.452 194.264C201.452 194.264 198.226 185.802 197.546 179.238C196.598 177.931 195.717 176.578 194.906 175.182C193.88 173.464 192.992 171.667 192.248 169.809"
            stroke="#263238" stroke-linecap="round" stroke-linejoin="round" />
    </g>
    <path
        d="M202.401 173.778C202.401 173.778 206.8 190.844 206.145 194.601C205.988 195.897 206.205 197.211 206.769 198.388C206.194 198.993 205.824 199.763 205.712 200.59C205.6 201.417 205.751 202.258 206.145 202.993"
        stroke="#263238" stroke-linecap="round" stroke-linejoin="round" />
    <path
        d="M214.069 187.899C213.284 187.869 212.52 187.628 211.86 187.2L210.556 181.484C213.144 181.72 215.752 181.536 218.281 180.941L219.679 187.181C218.893 187.4 218.095 187.573 217.289 187.699"
        stroke="#263238" stroke-linecap="round" stroke-linejoin="round" />
    <path
        d="M199.274 175.999C199.274 175.999 195.53 160.05 204.978 158.196C214.425 156.343 216.366 160.755 215.81 163.744C215.068 167.731 207.237 177.509 207.237 177.509L202.401 173.765L199.274 175.999Z"
        fill="#384A5D" stroke="#263238" stroke-linecap="round" stroke-linejoin="round" />
    <path opacity="0.4"
        d="M199.274 175.999C199.274 175.999 195.53 160.05 204.978 158.196C214.425 156.343 216.366 160.755 215.81 163.744C215.068 167.731 207.237 177.509 207.237 177.509L202.401 173.765L199.274 175.999Z"
        fill="white" stroke="#263238" stroke-linecap="round" stroke-linejoin="round" />
    <path
        d="M186.882 225.264C186.882 225.264 192.985 218.219 206.762 212.896C206.762 212.896 203.193 211.804 202.394 210.319"
        stroke="white" stroke-linecap="round" stroke-linejoin="round" />
    <path d="M179.706 246.823L174.127 267.078" stroke="white" stroke-linecap="round" stroke-linejoin="round" />
    <path
        d="M222.812 188.448C222.812 188.448 225.308 192.66 235.585 192.273C233.672 190.225 231.253 188.718 228.571 187.905C224.372 186.782 222.812 188.448 222.812 188.448Z"
        fill="#384A5D" stroke="#263238" stroke-linecap="round" stroke-linejoin="round" />
    <path
        d="M182.938 190.139C182.938 190.139 185.322 186.445 187.506 185.702C189.69 184.96 196.104 184.897 197.097 184.872C198.089 184.848 215.717 189.328 223.991 192.086L223.267 178.277L234.387 179.157C234.387 179.157 233.938 196.005 232.209 200.466C230.481 204.928 228.003 203.842 223.779 202.02C207.162 194.863 197.427 189.877 196.523 190.164C195.618 190.451 182.938 190.139 182.938 190.139Z"
        fill="white" stroke="#263238" stroke-linecap="round" stroke-linejoin="round" />
    <path
        d="M220.49 170.252C220.2 171.397 220.107 172.583 220.216 173.759C220.709 178.077 222.812 188.448 222.812 188.448C222.812 188.448 233.176 189.927 235.585 192.273C235.585 192.273 237.295 178.545 233.813 171.575C230.331 164.605 226.73 163.837 226.73 163.837C224.453 163.276 222.362 165.397 221.208 168.124"
        fill="#384A5D" />
    <path
        d="M220.49 170.252C220.2 171.397 220.107 172.583 220.216 173.759C220.709 178.077 222.812 188.448 222.812 188.448C222.812 188.448 233.176 189.927 235.585 192.273C235.585 192.273 237.295 178.545 233.813 171.575C230.331 164.605 226.73 163.837 226.73 163.837C224.453 163.276 222.362 165.397 221.208 168.124"
        stroke="#263238" stroke-linecap="round" stroke-linejoin="round" />
    <g opacity="0.4">
        <g opacity="0.4">
            <path
                d="M220.49 170.252C220.2 171.397 220.107 172.583 220.216 173.759C220.709 178.077 222.812 188.448 222.812 188.448C222.812 188.448 233.176 189.927 235.585 192.273C235.585 192.273 237.295 178.545 233.813 171.575C230.331 164.605 226.73 163.837 226.73 163.837C224.453 163.276 222.362 165.397 221.208 168.124"
                fill="white" />
            <path
                d="M220.49 170.252C220.2 171.397 220.107 172.583 220.216 173.759C220.709 178.077 222.812 188.448 222.812 188.448C222.812 188.448 233.176 189.927 235.585 192.273C235.585 192.273 237.295 178.545 233.813 171.575C230.331 164.605 226.73 163.837 226.73 163.837C224.453 163.276 222.362 165.397 221.208 168.124"
                stroke="#263238" stroke-linecap="round" stroke-linejoin="round" />
        </g>
    </g>
    <path d="M190.039 175.594C191.591 176.863 193.401 177.779 195.343 178.277" stroke="#263238" stroke-linecap="round"
        stroke-linejoin="round" />
    <path d="M222.812 175.594C222.812 175.594 226.556 182.67 231.286 184.23" stroke="#263238" stroke-linecap="round"
        stroke-linejoin="round" />
    <path d="M198.551 230.1C198.551 230.1 199.243 230.624 199.524 232.515" stroke="white" stroke-linecap="round"
        stroke-linejoin="round" />
    <path
        d="M195.986 232.515C196.589 232.58 197.172 232.771 197.697 233.073C198.222 233.376 198.679 233.785 199.037 234.275"
        stroke="white" stroke-linecap="round" stroke-linejoin="round" />
    <path d="M175.344 225.264C175.344 225.264 177.341 226.275 176.91 229.139" stroke="white" stroke-linecap="round"
        stroke-linejoin="round" />
    <path d="M173.241 227.698C173.241 227.698 175.968 229.314 176.161 230.761" stroke="white" stroke-linecap="round"
        stroke-linejoin="round" />
    <path d="M204.847 210.238C204.847 210.238 210.918 211.087 212.279 210.238" stroke="white" stroke-linecap="round"
        stroke-linejoin="round" />
    <path
        d="M202.401 173.091C201.877 171.605 201.664 170.027 201.777 168.455C201.802 167.922 201.858 167.39 201.945 166.864L200.891 165.192L199.536 163.039L201.103 156.799C201.103 156.799 211.087 158.721 211.836 161.504C212.584 164.287 202.401 173.091 202.401 173.091Z"
        fill="white" />
    <path opacity="0.2"
        d="M201.764 168.48C201.789 167.947 201.845 167.415 201.933 166.889L200.878 165.216C202.779 164.922 204.509 163.952 205.752 162.483C205.804 163.776 205.447 165.051 204.73 166.128C204.014 167.205 202.976 168.028 201.764 168.48V168.48Z"
        fill="black" fill-opacity="0.7" />
    <path
        d="M202.401 173.091C201.877 171.605 201.664 170.027 201.777 168.455C201.802 167.922 201.858 167.39 201.945 166.864L200.891 165.192L199.536 163.039L201.103 156.799C201.103 156.799 211.087 158.721 211.836 161.504C212.584 164.287 202.401 173.091 202.401 173.091Z"
        stroke="#263238" stroke-linecap="round" stroke-linejoin="round" />
    <path
        d="M208.666 157.323C211.786 149.211 209.714 135.402 194.738 138.048C185.952 139.608 184.891 150.228 187.824 154.945C190.757 159.663 187.643 159.813 192.055 163.307C193.846 164.724 195.287 167.126 197.421 167.282C199.961 167.457 203.212 165.054 205.639 162.458"
        fill="white" />
    <path
        d="M208.666 157.323C211.786 149.211 209.714 135.402 194.738 138.048C185.952 139.608 184.891 150.228 187.824 154.945C190.757 159.663 187.643 159.813 192.055 163.307C193.846 164.724 195.287 167.126 197.421 167.282C199.961 167.457 203.212 165.054 205.639 162.458"
        stroke="#263238" stroke-linecap="round" stroke-linejoin="round" />
    <path d="M193.908 154.945C193.908 154.945 196.117 152.936 198.744 153.766" stroke="#263238" stroke-linecap="round"
        stroke-linejoin="round" />
    <path
        d="M189.771 154.945C189.475 154.424 189.062 153.979 188.565 153.643C188.068 153.308 187.501 153.091 186.907 153.011"
        stroke="#263238" stroke-linecap="round" stroke-linejoin="round" />
    <path
        d="M191.231 157.872C191.231 157.872 190.913 159.488 190.495 161.123C190.077 162.758 193.116 161.866 192.991 161.616"
        fill="white" />
    <path
        d="M191.231 157.872C191.231 157.872 190.913 159.488 190.495 161.123C190.077 162.758 193.116 161.866 192.991 161.616"
        stroke="#263238" stroke-linecap="round" stroke-linejoin="round" />
    <path d="M194.557 163.656C195.845 163.288 196.992 162.537 197.845 161.504" stroke="#263238" stroke-linecap="round"
        stroke-linejoin="round" />
    <path
        d="M196.984 156.998C197.029 157.077 197.057 157.164 197.068 157.253C197.079 157.343 197.072 157.434 197.048 157.521C197.023 157.608 196.982 157.689 196.926 157.76C196.87 157.831 196.801 157.89 196.722 157.934C196.562 158.022 196.374 158.043 196.199 157.992C196.024 157.942 195.876 157.825 195.786 157.666C195.729 157.57 195.699 157.46 195.699 157.348C195.655 157.269 195.626 157.183 195.615 157.093C195.604 157.003 195.611 156.912 195.636 156.825C195.66 156.739 195.701 156.657 195.757 156.586C195.813 156.515 195.882 156.456 195.961 156.412C196.121 156.324 196.309 156.304 196.484 156.354C196.659 156.404 196.808 156.521 196.897 156.68C196.954 156.776 196.984 156.886 196.984 156.998Z"
        fill="#263238" />
    <path
        d="M190.32 156.861C190.445 157.31 190.357 157.735 190.12 157.797C189.883 157.86 189.59 157.548 189.496 157.092C189.403 156.636 189.465 156.218 189.702 156.156C189.939 156.094 190.183 156.406 190.32 156.861Z"
        fill="#263238" />
    <path
        d="M199.43 146.59C199.43 146.59 197.109 152.662 191.368 152.524C191.368 152.524 193.359 151.008 193.908 149.56C193.908 149.56 189.49 153.928 185.078 151.707C180.667 149.485 182.832 139.152 189.602 135.071C196.373 130.99 203.299 132.082 205.645 135.982C205.645 135.982 210.388 135.545 212.478 142.515C214.35 148.755 211.355 158.215 208.428 158.321C203.892 158.49 202.981 153.566 202.981 153.566C201.108 151.662 199.868 149.225 199.43 146.59Z"
        fill="#263238" stroke="#263238" stroke-linecap="round" stroke-linejoin="round" />
    <path
        d="M204.404 157.354C204.404 157.354 204.26 151.626 207.524 152.318C210.787 153.011 208.422 159.632 205.97 159.563"
        fill="white" />
    <path
        d="M204.404 157.354C204.404 157.354 204.26 151.626 207.524 152.318C210.787 153.011 208.422 159.632 205.97 159.563"
        stroke="#263238" stroke-linecap="round" stroke-linejoin="round" />
    <path
        d="M194.326 189.515H144.013C143.451 189.515 142.996 189.97 142.996 190.532V192.286C142.996 192.847 143.451 193.303 144.013 193.303H194.326C194.888 193.303 195.343 192.847 195.343 192.286V190.532C195.343 189.97 194.888 189.515 194.326 189.515Z"
        fill="#384A5D" stroke="#263238" stroke-linecap="round" stroke-linejoin="round" />
    <path d="M69.757 265.737H48.5347L50.7562 285.137H67.5355L69.757 265.737Z" fill="#263238" stroke="#263238"
        stroke-linecap="round" stroke-linejoin="round" />
    <path
        d="M72.2717 252.233C72.2717 252.233 63.0053 252.963 62.6184 259.802C62.6184 259.802 72.0034 264.12 72.2717 252.233Z"
        fill="#384A5D" stroke="#263238" stroke-linecap="round" stroke-linejoin="round" />
    <path
        d="M53.9386 253.931C53.9386 253.931 48.7594 246.929 40.3915 250.517C40.3915 250.517 45.5021 258.96 53.9386 253.931Z"
        fill="#384A5D" stroke="#263238" stroke-linecap="round" stroke-linejoin="round" />
    <path
        d="M41.1029 231.828C41.1029 231.828 39.6115 245.294 51.8731 241.588C51.8731 241.588 47.9794 231.685 41.1029 231.828Z"
        fill="#384A5D" stroke="#263238" stroke-linecap="round" stroke-linejoin="round" />
    <path
        d="M56.16 224.328C56.16 224.328 46.4631 229.557 53.5954 237.494C53.5892 237.494 60.3845 231.822 56.16 224.328Z"
        fill="#384A5D" stroke="#263238" stroke-linecap="round" stroke-linejoin="round" />
    <path
        d="M68.0847 236.365C68.0847 236.365 57.5391 235.298 57.5391 245.057C57.5391 245.057 68.0847 245.475 68.0847 236.365Z"
        fill="#384A5D" stroke="#263238" stroke-linecap="round" stroke-linejoin="round" />
    <path
        d="M58.1443 273.73C58.1443 273.73 62.9491 263.646 58.3378 253.375C53.7264 243.104 52.1602 234.449 54.5938 228.353"
        stroke="#263238" stroke-linecap="round" stroke-linejoin="round" />
    <path d="M64.6215 238.992C64.6215 238.992 58.3004 241.488 56.16 248.009" stroke="#263238" stroke-linecap="round"
        stroke-linejoin="round" />
    <path d="M44.4351 237.214C44.4351 237.214 48.0855 242.206 54.2693 241.65" stroke="#263238" stroke-linecap="round"
        stroke-linejoin="round" />
    <path d="M44.4351 251.952C44.4351 251.952 54.5439 254.86 58.5624 253.912" stroke="#263238" stroke-linecap="round"
        stroke-linejoin="round" />
    <path d="M69.264 255.31C69.264 255.31 64.74 260.302 60.1973 260.196" stroke="#263238" stroke-linecap="round"
        stroke-linejoin="round" />
    <path d="M70.668 265.306H47.6237V268.045H70.668V265.306Z" fill="#263238" stroke="#263238" stroke-linecap="round"
        stroke-linejoin="round" />
</svg>